HIERARCHY
ROOT Hips
{
	OFFSET -0.001795 -0.223333 0.028219
	CHANNELS 6 Xposition Yposition Zposition Zrotation Yrotation Xrotation 
	JOINT LeftUpLeg
	{
		OFFSET 0.069520 -0.091406 -0.006815
		CHANNELS 3 Zrotation Yrotation Xrotation
		JOINT LeftLeg
		{
			OFFSET 0.034277 -0.375199 -0.004496
			CHANNELS 3 Zrotation Yrotation Xrotation
			JOINT LeftFoot
			{
				OFFSET -0.013596 -0.397961 -0.043693
				CHANNELS 3 Zrotation Yrotation Xrotation
				JOINT LeftToe
				{
					OFFSET 0.026358 -0.055791 0.119288
					CHANNELS 3 Zrotation Yrotation Xrotation
					End Site
					{
						OFFSET 0.000000 0.000000 0.000000
					}
				}
			}
		}
	}
	JOINT RightUpLeg
	{
		OFFSET -0.067670 -0.090522 -0.004320
		CHANNELS 3 Zrotation Yrotation Xrotation
		JOINT RightLeg
		{
			OFFSET -0.038290 -0.382569 -0.008850
			CHANNELS 3 Zrotation Yrotation Xrotation
			JOINT RightFoot
			{
				OFFSET 0.015774 -0.398415 -0.042312
				CHANNELS 3 Zrotation Yrotation Xrotation
				JOINT RightToe
				{
					OFFSET -0.025372 -0.048144 0.123348
					CHANNELS 3 Zrotation Yrotation Xrotation
					End Site
					{
						OFFSET 0.000000 0.000000 0.000000
					}
				}
			}
		}
	}
	JOINT Spine
	{
		OFFSET -0.002533 0.108963 -0.026696
		CHANNELS 3 Zrotation Yrotation Xrotation
		JOINT Spine1
		{
			OFFSET 0.005487 0.135180 0.001092
			CHANNELS 3 Zrotation Yrotation Xrotation
			JOINT Spine2
			{
				OFFSET 0.001457 0.052922 0.025425
				CHANNELS 3 Zrotation Yrotation Xrotation
				JOINT Neck
				{
					OFFSET -0.002778 0.213870 -0.042857
					CHANNELS 3 Zrotation Yrotation Xrotation
					JOINT Head
					{
						OFFSET 0.005152 0.064970 0.051349
						CHANNELS 3 Zrotation Yrotation Xrotation
						End Site
						{
							OFFSET 0.000000 0.000000 0.000000
						}
					}
				}
				JOINT LeftShoulder
				{
					OFFSET 0.078845 0.121749 -0.034090
					CHANNELS 3 Zrotation Yrotation Xrotation
					JOINT LeftArm
					{
						OFFSET 0.090977 0.030469 -0.008868
						CHANNELS 3 Zrotation Yrotation Xrotation
						JOINT LeftForeArm
						{
							OFFSET 0.259612 -0.012772 -0.027456
							CHANNELS 3 Zrotation Yrotation Xrotation
							JOINT LeftHand
							{
								OFFSET 0.249234 0.008986 -0.001171
								CHANNELS 3 Zrotation Yrotation Xrotation
								End Site
								{
									OFFSET 0.000000 0.000000 0.000000
								}
							}
						}
					}
				}
				JOINT RightShoulder
				{
					OFFSET -0.081759 0.118833 -0.038615
					CHANNELS 3 Zrotation Yrotation Xrotation
					JOINT RightArm
					{
						OFFSET -0.096012 0.032551 -0.009143
						CHANNELS 3 Zrotation Yrotation Xrotation
						JOINT RightForeArm
						{
							OFFSET -0.253742 -0.013329 -0.021401
							CHANNELS 3 Zrotation Yrotation Xrotation
							JOINT RightHand
							{
								OFFSET -0.255298 0.007772 -0.005559
								CHANNELS 3 Zrotation Yrotation Xrotation
								End Site
								{
									OFFSET 0.000000 0.000000 0.000000
								}
							}
						}
					}
				}
			}
		}
	}
}
MOTION
Frames: 16
Frame Time: 0.050000
0.000000 0.762297 0.000000 0.630636 -20.396010 -33.557553 14.205034 2.694718 -15.275107 -4.132924 8.018346 63.615340 5.020757 10.396580 1.533741 0.000000 0.000000 0.000000 -16.511345 0.063447 -12.753388 17.866525 -0.577170 70.213921 -6.169573 -14.897649 -0.724520 0.000000 0.000000 0.000000 1.884698 0.224912 34.196126 -19.609461 9.657117 -11.827786 6.382297 3.496056 20.366442 5.117208 -8.774264 25.012921 0.000000 0.000000 0.000000 -18.759179 -5.651584 2.563646 -50.280472 26.353202 -18.964441 -27.071930 -32.573936 10.174736 0.000000 0.000000 0.000000 35.874757 -3.711536 -8.683995 34.526035 -34.369984 -13.384721 27.861758 27.176596 6.968187 0.000000 0.000000 0.000000 
0.002103 0.762671 -0.015127 -0.200981 -21.443888 -34.851435 12.905873 2.310486 -13.963337 -0.525919 5.714129 64.735159 4.675872 9.087305 -2.749593 0.000000 0.000000 0.000000 -15.856636 0.081268 -12.504394 19.247519 -1.177621 70.809053 -5.536050 -13.459174 -0.388296 0.000000 0.000000 0.000000 4.231040 -0.107751 34.025738 -20.774600 10.340459 -12.224007 8.224769 2.971927 23.758932 5.434575 -8.688387 21.304085 0.000000 0.000000 0.000000 -18.290731 -6.333864 3.093241 -50.961038 23.631022 -18.463536 -32.995613 -30.937545 11.758277 0.000000 0.000000 0.000000 34.453984 -1.976754 -7.043346 38.397671 -32.598355 -14.780915 28.850599 29.617374 8.037917 0.000000 0.000000 0.000000 
0.005446 0.762254 -0.030622 0.485698 -21.397676 -36.181635 13.231976 2.407733 -13.400523 -2.222075 7.224957 64.766105 5.205875 10.046423 -3.334448 0.000000 0.000000 0.000000 -15.756311 0.090223 -13.795205 20.160456 -1.789778 70.428171 -7.743027 -19.309253 6.140224 0.000000 0.000000 0.000000 3.804917 0.036534 34.360861 -16.444943 8.857379 -6.871133 5.748843 5.349429 20.572368 6.037973 -8.929082 17.721566 0.000000 0.000000 0.000000 -17.831637 -7.600688 2.992275 -52.294687 25.654082 -19.318247 -36.047985 -33.044180 13.189695 0.000000 0.000000 0.000000 30.310157 -1.844400 -5.183498 41.439075 -31.122051 -15.606804 31.877368 30.723951 9.338068 0.000000 0.000000 0.000000 
0.009416 0.767653 -0.046515 1.933030 -22.186570 -38.938313 11.313941 1.870904 -10.573645 -0.879085 6.517579 63.069751 4.496396 8.865691 -2.165038 0.000000 0.000000 0.000000 -16.760410 0.027742 -11.598056 18.552841 0.013925 68.738704 -5.256753 -14.036350 4.661767 0.000000 0.000000 0.000000 4.593768 0.071159 34.673649 -17.275251 9.557914 -6.460927 5.605152 4.865056 24.325218 5.562872 -7.498025 12.800728 0.000000 0.000000 0.000000 -15.615580 -7.074161 2.893770 -55.074544 24.171523 -20.044094 -36.649270 -33.530149 14.004888 0.000000 0.000000 0.000000 29.210271 -1.075677 -4.480913 43.294978 -28.339695 -15.693105 31.203151 29.529437 8.847796 0.000000 0.000000 0.000000 
0.013353 0.768505 -0.062967 2.538175 -21.974924 -39.389530 11.426198 1.928770 -11.184706 -1.325709 6.827787 62.597164 3.275473 6.596820 -0.752493 0.000000 0.000000 0.000000 -16.642516 0.025552 -13.107130 18.504633 0.077057 68.495240 -5.841864 -15.965924 8.404400 0.000000 0.000000 0.000000 4.597484 0.197740 36.413858 -16.925208 9.405708 -6.316369 5.714817 4.818222 23.760483 6.269468 -7.935731 10.631336 0.000000 0.000000 0.000000 -16.277480 -6.987510 2.808736 -53.878314 25.133428 -20.016108 -41.089864 -35.161963 16.401370 0.000000 0.000000 0.000000 27.645151 -1.970458 -4.800958 42.843295 -26.712548 -14.946072 34.484411 30.425278 9.996217 0.000000 0.000000 0.000000 
0.016505 0.766246 -0.079470 3.397237 -22.034777 -40.558433 11.661665 2.013758 -10.742737 -1.817021 7.088794 61.453401 5.587178 11.804600 4.307580 0.000000 0.000000 0.000000 -16.322856 0.030863 -14.272380 17.884391 0.740592 68.648087 -6.171970 -17.121118 11.881861 0.000000 0.000000 0.000000 5.458485 0.129943 37.094670 -18.285112 10.266367 -6.771103 6.167252 3.492745 25.633236 6.320260 -7.579599 7.793445 0.000000 0.000000 0.000000 -14.762353 -7.049888 3.004154 -54.276808 24.822640 -20.131497 -44.697345 -35.597598 18.446007 0.000000 0.000000 0.000000 26.653218 -1.744519 -4.790091 42.543719 -25.944859 -14.652057 36.896692 30.537730 10.634656 0.000000 0.000000 0.000000 
0.018647 0.761726 -0.095576 3.479766 -21.383375 -41.065597 12.333983 2.191234 -11.170556 -1.782644 6.570810 60.971080 4.902219 11.097330 8.814864 0.000000 0.000000 0.000000 -16.147082 -0.008068 -15.334304 18.667644 -0.076462 68.710675 -8.296470 -20.856465 14.457018 0.000000 0.000000 0.000000 5.735423 0.066103 37.906887 -17.539285 9.971618 -6.265823 5.461287 2.947000 25.226402 6.774300 -7.793152 6.234516 0.000000 0.000000 0.000000 -13.810784 -7.309676 3.060022 -54.032439 25.261130 -20.153038 -48.047763 -36.034676 20.118273 0.000000 0.000000 0.000000 26.186798 -1.404152 -4.598831 42.616865 -26.109178 -14.716636 39.855896 31.112769 11.680785 0.000000 0.000000 0.000000 
0.019986 0.755204 -0.110211 3.566943 -20.828516 -42.000875 12.612244 2.244365 -10.676823 -2.176705 6.563677 61.025735 4.104781 9.233567 5.031040 0.000000 0.000000 0.000000 -15.613635 -0.021269 -16.171540 19.117738 -0.538386 70.128814 -9.875746 -23.295145 15.187973 0.000000 0.000000 0.000000 6.254192 -0.067017 38.384083 -16.595758 9.350845 -6.571754 4.579141 2.447581 26.615494 7.245279 -7.934659 3.361395 0.000000 0.000000 0.000000 -13.252940 -8.205559 3.482641 -53.655464 24.714543 -19.901328 -49.357896 -36.706009 21.235557 0.000000 0.000000 0.000000 26.042018 -1.516361 -4.630407 42.725349 -25.649647 -14.751027 41.635027 30.657622 12.062996 0.000000 0.000000 0.000000 
0.021032 0.748296 -0.123697 3.835758 -20.389679 -43.112400 13.070204 2.361436 -10.463008 -2.112718 6.424761 61.923041 2.295524 5.386298 2.405191 0.000000 0.000000 0.000000 -15.174035 -0.015737 -16.850407 19.269462 -0.692197 71.462629 -11.029556 -24.999676 15.879172 0.000000 0.000000 0.000000 6.424382 -0.099428 38.634358 -15.980136 9.204273 -5.569817 3.949716 1.771812 26.494388 6.995054 -7.379594 1.645971 0.000000 0.000000 0.000000 -12.369731 -8.388963 3.524347 -53.296664 23.713329 -19.231858 -50.561005 -36.631065 21.775859 0.000000 0.000000 0.000000 25.219050 -1.494543 -4.607955 44.021946 -26.068530 -15.378957 42.714284 29.928475 12.040259 0.000000 0.000000 0.000000 
0.022152 0.744002 -0.136539 4.259461 -20.195908 -43.953528 13.060626 2.359233 -10.201539 -2.225263 6.529492 62.100018 1.745432 3.865706 0.702876 0.000000 0.000000 0.000000 -14.401982 0.065175 -17.311565 18.851642 -0.289797 72.790770 -11.364952 -25.574296 14.463399 0.000000 0.000000 0.000000 6.969998 -0.201314 38.518449 -15.773522 9.010646 -5.925382 3.123911 1.221987 27.776970 7.527075 -7.654553 -0.777268 0.000000 0.000000 0.000000 -12.474374 -8.624395 3.744407 -52.558764 22.405686 -18.537458 -49.499053 -37.206017 21.768471 0.000000 0.000000 0.000000 25.653241 -1.094681 -4.571771 44.167826 -25.360540 -15.260379 42.002985 29.839359 11.792873 0.000000 0.000000 0.000000 
0.023437 0.742593 -0.149300 4.376155 -19.849959 -44.833496 12.558190 2.242960 -10.356912 -2.511556 6.688639 62.179452 2.609758 5.826176 1.699746 0.000000 0.000000 0.000000 -14.214964 0.046365 -17.408278 18.610096 -0.172314 72.900423 -11.259020 -25.333621 15.480584 0.000000 0.000000 0.000000 7.013722 -0.216897 38.377552 -15.333609 8.742899 -5.895960 2.897379 1.547788 28.371216 7.634968 -7.811611 -0.810535 0.000000 0.000000 0.000000 -12.876599 -9.529778 4.132652 -52.228825 21.118376 -17.979040 -47.903904 -37.869223 21.371200 0.000000 0.000000 0.000000 25.470425 -0.684629 -4.119663 45.374178 -25.268913 -15.796685 41.952775 29.853188 11.937091 0.000000 0.000000 0.000000 
0.024841 0.745184 -0.162191 4.582157 -19.552691 -45.361097 12.164163 2.138162 -10.482116 -2.774271 6.713926 61.356912 2.691776 6.494806 3.884698 0.000000 0.000000 0.000000 -13.635357 0.075879 -17.039119 17.750062 0.453669 72.739573 -10.688183 -24.505874 14.188018 0.000000 0.000000 0.000000 6.912309 -0.225883 37.953504 -15.019191 8.736821 -5.061946 2.401197 1.773592 27.500079 8.187062 -8.465420 0.465158 0.000000 0.000000 0.000000 -13.115212 -9.758870 4.191353 -51.504640 20.866983 -17.537196 -47.405921 -38.407867 21.226614 0.000000 0.000000 0.000000 26.069748 -0.139508 -3.885039 44.475095 -24.946936 -15.229079 41.771221 30.236297 11.998824 0.000000 0.000000 0.000000 
0.026309 0.750635 -0.174997 4.606346 -19.118758 -45.695311 11.765590 2.016370 -10.218685 -3.471247 6.732439 59.324494 3.301068 8.011853 5.981478 0.000000 0.000000 0.000000 -13.135402 0.056503 -16.245888 16.582378 1.117923 71.336276 -10.176784 -23.710278 14.040275 0.000000 0.000000 0.000000 7.028563 -0.302379 37.285009 -14.859079 8.810909 -4.466306 2.219734 1.946692 27.062539 8.307863 -8.751930 1.585408 0.000000 0.000000 0.000000 -14.318321 -10.174868 4.420788 -49.944181 21.002797 -17.037224 -47.588630 -38.243677 20.968035 0.000000 0.000000 0.000000 26.693082 0.048489 -3.810323 43.491358 -24.762277 -14.734144 42.807053 31.549686 12.873000 0.000000 0.000000 0.000000 
0.027938 0.756670 -0.187752 4.673757 -18.871339 -46.088697 11.663097 1.982364 -10.120806 -3.943418 6.695877 57.721639 2.948059 7.840340 8.390090 0.000000 0.000000 0.000000 -12.806976 0.029019 -15.284304 15.493874 1.754150 69.739889 -9.291539 -22.317758 13.555353 0.000000 0.000000 0.000000 7.304126 -0.381905 36.986123 -15.016233 9.135631 -3.806723 2.118155 1.864189 26.505381 8.860176 -9.558745 3.203229 0.000000 0.000000 0.000000 -14.617988 -10.999664 4.764040 -49.267048 21.085366 -16.764167 -47.758645 -38.626115 21.092405 0.000000 0.000000 0.000000 27.334994 0.407196 -3.731203 42.171130 -24.726563 -14.134568 44.689003 33.455386 14.275586 0.000000 0.000000 0.000000 
0.029877 0.761652 -0.200568 4.760470 -18.664349 -46.442835 11.573182 1.952863 -9.739624 -4.357344 6.644201 56.268811 2.408459 7.087523 9.249510 0.000000 0.000000 0.000000 -12.690861 -0.025921 -14.205138 14.622357 2.153193 67.763491 -8.651478 -21.281271 12.764455 0.000000 0.000000 0.000000 7.638143 -0.451336 36.865156 -14.869924 9.174303 -3.428266 1.697665 1.717137 26.116677 9.131549 -10.052491 4.460195 0.000000 0.000000 0.000000 -14.801757 -10.971859 4.750525 -48.647970 21.757371 -16.764102 -48.256763 -37.990993 20.880243 0.000000 0.000000 0.000000 27.627279 0.316645 -3.886008 40.457468 -24.577041 -13.395648 46.341473 35.213791 15.609681 0.000000 0.000000 0.000000 
0.032335 0.764858 -0.213892 4.772450 -18.598975 -46.725324 11.390782 1.913452 -9.587645 -4.224307 6.445711 55.894173 1.643121 5.874781 9.570274 0.000000 0.000000 0.000000 -12.582526 -0.056123 -13.446180 14.002014 2.443779 66.465739 -7.683315 -19.572218 11.178337 0.000000 0.000000 0.000000 8.354102 -0.573538 37.132398 -15.308030 9.650821 -3.170161 1.611002 1.109483 25.771050 9.183671 -10.493650 6.612847 0.000000 0.000000 0.000000 -15.294286 -11.235427 4.938657 -47.648595 22.292196 -16.586870 -48.861988 -38.343589 21.292279 0.000000 0.000000 0.000000 28.087690 0.480667 -4.095807 38.368523 -25.026890 -12.677020 48.245293 37.059908 17.040725 0.000000 0.000000 0.000000 
